<svg width="51" height="50" viewBox="0 0 51 50" fill="none" xmlns="http://www.w3.org/2000/svg">
<path fill-rule="evenodd" clip-rule="evenodd" d="M0.439941 14.1602V7.16016C0.439941 5.22716 1.12336 3.57724 2.49019 2.21041C3.85703 0.843574 5.50694 0.160156 7.43994 0.160156H43.1299C45.0629 0.160156 46.7128 0.843574 48.0797 2.21041C49.4465 3.57724 50.1299 5.22716 50.1299 7.16016V42.8502C50.1299 44.7831 49.4465 46.4331 48.0797 47.7999C46.7128 49.1667 45.0629 49.8502 43.1299 49.8502H7.43994C5.50694 49.8502 3.85703 49.1667 2.49019 47.7999C1.12336 46.4331 0.439941 44.7831 0.439941 42.8502V14.1602Z" fill="#F5F6FA"/>
<path fill-rule="evenodd" clip-rule="evenodd" d="M27.087 38.9941V26.2251H31.215L31.833 21.2481H27.087V18.0711C27.087 16.6301 27.472 15.6481 29.462 15.6481H32V11.2001C30.7714 11.0637 29.5361 10.9969 28.3 11.0001C24.641 11.0001 22.136 13.3191 22.136 17.5781V21.2481H18V26.2251H22.138V38.9951L27.087 38.9941Z" fill="#AAB0B7"/>
</svg>
