<svg width="223" height="43" viewBox="0 0 223 43" fill="none" xmlns="http://www.w3.org/2000/svg">
<path fill-rule="evenodd" clip-rule="evenodd" d="M21.4729 32.2617L14.1629 36.1047C13.5596 36.4233 12.8277 36.3713 12.2755 35.9706C11.7233 35.5698 11.447 34.89 11.5629 34.2177L12.9629 26.0787L7.05192 20.3117C6.56413 19.8361 6.38861 19.1248 6.59914 18.4769C6.80967 17.829 7.36974 17.3567 8.04392 17.2587L16.2159 16.0717L19.8729 8.66867C20.174 8.0572 20.7963 7.66992 21.4779 7.66992C22.1595 7.66992 22.7818 8.0572 23.0829 8.66867L26.7379 16.0737L34.9099 17.2607C35.5841 17.3587 36.1442 17.831 36.3547 18.4789C36.5652 19.1268 36.3897 19.8381 35.9019 20.3137L29.9889 26.0777L31.3889 34.2167C31.5049 34.889 31.2285 35.5688 30.6764 35.9696C30.1242 36.3703 29.3922 36.4223 28.7889 36.1037L21.4729 32.2617Z" fill="#FFBE3D"/>
<path fill-rule="evenodd" clip-rule="evenodd" d="M66.4729 32.2617L59.1629 36.1047C58.5596 36.4233 57.8277 36.3713 57.2755 35.9706C56.7233 35.5698 56.447 34.89 56.5629 34.2177L57.9629 26.0787L52.0519 20.3117C51.5641 19.8361 51.3886 19.1248 51.5991 18.4769C51.8097 17.829 52.3697 17.3567 53.0439 17.2587L61.2159 16.0717L64.8729 8.66867C65.174 8.0572 65.7963 7.66992 66.4779 7.66992C67.1595 7.66992 67.7818 8.0572 68.0829 8.66867L71.7379 16.0737L79.9099 17.2607C80.5841 17.3587 81.1442 17.831 81.3547 18.4789C81.5652 19.1268 81.3897 19.8381 80.9019 20.3137L74.9889 26.0777L76.3889 34.2167C76.5049 34.889 76.2285 35.5688 75.6764 35.9696C75.1242 36.3703 74.3922 36.4223 73.7889 36.1037L66.4729 32.2617Z" fill="#FFBE3D"/>
<path fill-rule="evenodd" clip-rule="evenodd" d="M111.473 32.2617L104.163 36.1047C103.56 36.4233 102.828 36.3713 102.275 35.9706C101.723 35.5698 101.447 34.89 101.563 34.2177L102.963 26.0787L97.0519 20.3117C96.5641 19.8361 96.3886 19.1248 96.5991 18.4769C96.8097 17.829 97.3697 17.3567 98.0439 17.2587L106.216 16.0717L109.873 8.66867C110.174 8.0572 110.796 7.66992 111.478 7.66992C112.159 7.66992 112.782 8.0572 113.083 8.66867L116.738 16.0737L124.91 17.2607C125.584 17.3587 126.144 17.831 126.355 18.4789C126.565 19.1268 126.39 19.8381 125.902 20.3137L119.989 26.0777L121.389 34.2167C121.505 34.889 121.229 35.5688 120.676 35.9696C120.124 36.3703 119.392 36.4223 118.789 36.1037L111.473 32.2617Z" fill="#FFBE3D"/>
<path fill-rule="evenodd" clip-rule="evenodd" d="M156.473 32.2617L149.163 36.1047C148.56 36.4233 147.828 36.3713 147.275 35.9706C146.723 35.5698 146.447 34.89 146.563 34.2177L147.963 26.0787L142.052 20.3117C141.564 19.8361 141.389 19.1248 141.599 18.4769C141.81 17.829 142.37 17.3567 143.044 17.2587L151.216 16.0717L154.873 8.66867C155.174 8.0572 155.796 7.66992 156.478 7.66992C157.159 7.66992 157.782 8.0572 158.083 8.66867L161.738 16.0737L169.91 17.2607C170.584 17.3587 171.144 17.831 171.355 18.4789C171.565 19.1268 171.39 19.8381 170.902 20.3137L164.989 26.0777L166.389 34.2167C166.505 34.889 166.229 35.5688 165.676 35.9696C165.124 36.3703 164.392 36.4223 163.789 36.1037L156.473 32.2617Z" fill="#FFBE3D"/>
<path fill-rule="evenodd" clip-rule="evenodd" d="M201.473 32.2617L194.163 36.1047C193.56 36.4233 192.828 36.3713 192.275 35.9706C191.723 35.5698 191.447 34.89 191.563 34.2177L192.963 26.0787L187.052 20.3117C186.564 19.8361 186.389 19.1248 186.599 18.4769C186.81 17.829 187.37 17.3567 188.044 17.2587L196.216 16.0717L199.873 8.66867C200.174 8.0572 200.796 7.66992 201.478 7.66992C202.159 7.66992 202.782 8.0572 203.083 8.66867L206.738 16.0737L214.91 17.2607C215.584 17.3587 216.144 17.831 216.355 18.4789C216.565 19.1268 216.39 19.8381 215.902 20.3137L209.989 26.0777L211.389 34.2167C211.505 34.889 211.229 35.5688 210.676 35.9696C210.124 36.3703 209.392 36.4223 208.789 36.1037L201.473 32.2617Z" fill="#FFBE3D"/>
</svg>
