<svg width="80" height="80" viewBox="0 0 80 80" fill="none" xmlns="http://www.w3.org/2000/svg">
<circle cx="40" cy="40" r="40" fill="#EAFAF3"/>
<path fill-rule="evenodd" clip-rule="evenodd" d="M42.3581 50.5582C42.3581 50.5982 42.3581 50.6385 42.3581 50.6792V55.8382C42.3581 56.7881 41.588 57.5582 40.6381 57.5582C39.6881 57.5582 38.9181 56.7881 38.9181 55.8382L38.9181 50.6782C38.9181 50.6375 38.9181 50.5972 38.9181 50.5572C32.9955 49.6991 28.6013 44.6226 28.6011 38.6382L32.0411 38.6382C32.0411 43.3878 35.8914 47.2382 40.6411 47.2382C45.3907 47.2382 49.2411 43.3878 49.2411 38.6382H52.6811C52.6811 44.6245 48.2838 49.7025 42.3585 50.5581L42.3581 50.5582Z" fill="#2DCA8C"/>
<path opacity="0.3" fill-rule="evenodd" clip-rule="evenodd" d="M35 33.5V28.5C35 26.9812 35.537 25.6849 36.6109 24.6109C37.6849 23.537 38.9812 23 40.5 23C42.0188 23 43.3151 23.537 44.3891 24.6109C45.463 25.6849 46 26.9812 46 28.5V38.5C46 40.0188 45.463 41.3151 44.3891 42.3891C43.3151 43.463 42.0188 44 40.5 44C38.9812 44 37.6849 43.463 36.6109 42.3891C35.537 41.3151 35 40.0188 35 38.5V33.5Z" fill="#2DCA8C"/>
</svg>
