<svg width="50" height="50" viewBox="0 0 50 50" fill="none" xmlns="http://www.w3.org/2000/svg">
<path fill-rule="evenodd" clip-rule="evenodd" d="M0.310059 14.1602V7.16016C0.310059 5.22716 0.993476 3.57724 2.36031 2.21041C3.72715 0.843574 5.37706 0.160156 7.31006 0.160156H43.0001C44.9331 0.160156 46.583 0.843574 47.9498 2.21041C49.3166 3.57724 50.0001 5.22716 50.0001 7.16016V42.8502C50.0001 44.7831 49.3166 46.4331 47.9498 47.7999C46.583 49.1667 44.9331 49.8502 43.0001 49.8502H7.31006C5.37706 49.8502 3.72715 49.1667 2.36031 47.7999C0.993476 46.4331 0.310059 44.7831 0.310059 42.8502V14.1602Z" fill="#F5F6FA"/>
<path fill-rule="evenodd" clip-rule="evenodd" d="M38.4061 18.0521C38.2441 17.4655 37.9342 16.9304 37.5061 16.4981C37.0805 16.0675 36.5506 15.7546 35.9681 15.5901C33.7861 14.9991 25.0051 14.9991 25.0051 14.9991C25.0051 14.9991 16.2491 14.9841 14.0451 15.5911C13.4625 15.7556 12.9326 16.0685 12.5071 16.4991C12.0789 16.9314 11.769 17.4665 11.6071 18.0531C11.1934 20.3107 10.9896 22.6018 10.9981 24.8971C10.9918 27.1828 11.1963 29.4648 11.609 31.7135C11.7709 32.3002 12.0808 32.8355 12.5091 33.2681C12.9346 33.6986 13.4645 34.0115 14.0471 34.1761C16.2261 34.7681 25.0101 34.7681 25.0101 34.7681C25.0101 34.7681 33.7671 34.7681 35.9731 34.1761C36.5556 34.0115 37.0855 33.6986 37.5111 33.2681C37.9392 32.8357 38.2491 32.3006 38.4111 31.7141C38.8143 29.4641 39.0095 27.1818 38.9941 24.8961C39.0095 22.6018 38.8127 20.3107 38.4061 18.0523L38.4061 18.0521ZM22.2051 29.1291V20.6491L29.5131 24.8961L22.2051 29.1291Z" fill="#AAB0B7"/>
</svg>
